<svg width="64" height="64" viewBox="0 0 64 64" fill="none" xmlns="http://www.w3.org/2000/svg">
<path d="M16.536 60H4.926V22.612H16.536V60ZM10.724 17.512C7.012 17.512 4 14.436 4 10.724C4 8.94068 4.70842 7.23041 5.96941 5.96941C7.23041 4.70842 8.94068 4 10.724 4C12.5073 4 14.2176 4.70842 15.4786 5.96941C16.7396 7.23041 17.448 8.94068 17.448 10.724C17.448 14.436 14.436 17.512 10.724 17.512ZM59.988 60H48.404V41.8C48.404 37.462 48.316 31.9 42.368 31.9C36.332 31.9 35.406 36.612 35.406 41.488V60H23.808V22.612H34.942V27.712H35.104C36.654 24.774 40.44 21.674 46.088 21.674C57.838 21.674 59.998 29.412 59.998 39.462V60H59.988Z" fill="#0A66C2"/>
</svg>
