<svg width="56" height="56" viewBox="0 0 56 56" fill="none" xmlns="http://www.w3.org/2000/svg">
    <g clip-path="url(#clip0_487_3108)">
        <path fill-rule="evenodd" clip-rule="evenodd" d="M0 28C0 12.5125 12.5125 0 28 0C43.4875 0 56 12.5125 56 28C56 43.4875 43.4875 56 28 56H25.725V55.9125C11.375 54.775 0 42.7 0 28ZM28.7 51.45C41.3 51.1 51.45 40.6875 51.45 28C51.45 15.05 40.95 4.55 28 4.55C15.05 4.55 4.55 15.05 4.55 28C4.55 40.95 15.05 51.45 28 51.45H28.7Z" fill="white"/>
        <path fill-rule="evenodd" clip-rule="evenodd" d="M16.625 7.5252C16.275 7.4377 16.0125 7.35019 15.6625 7.17519L17.15 2.8877C17.325 2.9752 17.5 2.9752 17.85 3.0627C18.375 3.2377 18.9875 3.4127 19.3375 3.5877C19.425 3.5877 19.5125 3.6752 19.6875 3.6752C20.3 3.9377 21 4.2002 21.6125 4.4627L21.7 4.5502C21.9625 4.7252 22.4 4.9002 22.75 5.0752C22.925 5.1627 23.1 5.2502 23.275 5.3377H23.3625H23.45C23.5375 5.4252 23.8 5.5127 24.0625 5.6877H24.15C24.15 5.6877 24.2375 5.6877 24.2375 5.7752C24.2375 5.7752 24.325 5.77519 24.325 5.86269C24.325 5.86269 24.325 5.86269 24.4125 5.86269C24.4125 5.86269 24.4125 5.86269 24.5 5.86269C24.5 5.86269 24.5875 5.8627 24.5875 5.9502C24.7625 6.0377 25.025 6.21269 25.2 6.30019C25.4625 6.47519 25.8125 6.6502 26.075 6.8252C26.3375 7.0002 26.6875 7.26269 26.95 7.35019L27.0375 7.43769C27.2125 7.52519 27.3875 7.61269 27.475 7.70019C27.65 7.78769 27.825 7.96269 28 8.05019C28.0875 8.13769 28.175 8.13769 28.175 8.22519C28.2625 8.31269 28.35 8.3127 28.4375 8.4002C28.525 8.4877 28.525 8.48769 28.6125 8.48769C28.6125 8.48769 28.6125 8.48769 28.7 8.48769H28.7875H28.875C31.4125 10.4127 33.6 12.6002 35.525 15.1377C37.625 17.9377 39.2875 21.0002 40.425 24.3252C43.8375 33.9502 42.875 44.9752 37.45 53.7252L33.6 51.3627C38.2375 43.8377 39.1125 34.2127 36.1375 25.8127C35.175 23.0127 33.6875 20.3002 31.85 17.9377C30.1875 15.7502 28.2625 13.8252 26.075 12.1627C25.9875 12.0752 25.8125 11.9877 25.725 11.9002C25.6375 11.8127 25.55 11.7252 25.4625 11.7252C25.375 11.6377 25.375 11.6377 25.2875 11.5502C25.1125 11.4627 25.025 11.2877 24.85 11.2002C24.7625 11.1127 24.675 11.1127 24.675 11.1127H24.5875V11.3752C24.5 11.2877 24.325 11.2002 24.2375 11.2002C24.0625 11.0252 23.8875 10.9377 23.7125 10.8502L23.625 10.7627L23.5375 10.6752C23.5375 10.6752 23.45 10.6752 23.3625 10.5877C23.275 10.5002 23.1 10.4127 22.925 10.3252C22.75 10.2377 22.4875 10.0627 22.4 9.97519C22.3125 9.97519 22.225 9.88769 22.225 9.88769L22.1375 9.80019C22.05 9.80019 22.05 9.7127 21.9625 9.7127C21.9625 9.7127 21.875 9.62519 21.7875 9.62519C21.7 9.53769 21.6125 9.53769 21.4375 9.45019C21.2625 9.36269 21.0875 9.27519 20.9125 9.18769C20.5625 9.01269 20.2125 8.83769 19.8625 8.75019L19.775 8.66269C19.3375 8.48769 18.8125 8.31269 18.2875 8.05019C18.025 7.96269 17.9375 7.87519 17.7625 7.87519C17.4125 7.70019 17.0625 7.6127 16.625 7.5252Z" fill="white"/>
        <path fill-rule="evenodd" clip-rule="evenodd" d="M26.25 18.2877C33.075 17.0627 39.4625 13.2127 43.75 7.7002L47.3375 10.5002C42.2625 16.8877 35 21.3502 27.0374 22.7502C23.0999 23.4502 18.9875 23.4502 15.05 22.7502C11.1125 22.0502 7.26245 20.6502 3.76245 18.5502L6.12495 14.7002C9.09995 16.4502 12.425 17.7627 15.8375 18.3752C19.25 18.9002 22.75 18.9002 26.25 18.2877Z" fill="white"/>
        <path fill-rule="evenodd" clip-rule="evenodd" d="M14.0875 51.0123C17.9375 31.2373 38.15 20.2998 54.6 24.7623L53.375 29.1373C39.375 25.2873 21.875 34.7373 18.4625 51.8873L14.0875 51.0123Z" fill="white"/>
    </g>
    <defs>
        <clipPath id="clip0_487_3108">
        <rect width="56" height="56" fill="white"/>
        </clipPath>
    </defs>
</svg>
