<svg width="61" height="46" viewBox="0 0 61 46" fill="none" xmlns="http://www.w3.org/2000/svg">
<path d="M13.8523 45.7735V22.1991L6.54903 15.5105L0 11.7988V41.6133C0 43.9152 1.86302 45.7735 4.15579 45.7735H13.8523Z" fill="#4285F4"/>
<path d="M47.0977 45.7733H56.7942C59.0939 45.7733 60.95 43.908 60.95 41.613V11.7988L53.5322 16.0501L47.0977 22.1989V45.7733Z" fill="#34A853"/>
<path d="M13.8523 22.1991L12.8585 12.9879L13.8523 4.17188L30.475 16.6524L47.0977 4.17188L48.2093 12.5119L47.0977 22.1991L30.475 34.6796L13.8523 22.1991Z" fill="#EA4335"/>
<path d="M47.0977 4.17186V22.1991L60.95 11.7988V6.25187C60.95 1.10726 55.0835 -1.82553 50.9766 1.2598L47.0977 4.17186Z" fill="#FBBC04"/>
<path d="M0 11.7989L6.37094 16.5824L13.8523 22.1992V4.17197L9.97342 1.25991C5.85929 -1.82566 0 1.10737 0 6.25174V11.7987V11.7989Z" fill="#C5221F"/>
</svg>
