<svg width="36" height="56" viewBox="0 0 36 56" fill="none" xmlns="http://www.w3.org/2000/svg">
<path d="M9 55.9997C13.968 55.9997 18 51.8183 18 46.6663V37.333H9C4.032 37.333 0 41.5143 0 46.6663C0 51.8183 4.032 55.9997 9 55.9997Z" fill="#0ACF83"/>
<path d="M0 28.0003C0 22.8483 4.032 18.667 9 18.667H18V37.3337H9C4.032 37.3337 0 33.1523 0 28.0003Z" fill="#A259FF"/>
<path d="M0 9.33333C0 4.18133 4.032 0 9 0H18V18.6667H9C4.032 18.6667 0 14.4853 0 9.33333Z" fill="#F24E1E"/>
<path d="M18.0002 0H27.0002C31.9682 0 36.0002 4.18133 36.0002 9.33333C36.0002 14.4853 31.9682 18.6667 27.0002 18.6667H18.0002V0Z" fill="#FF7262"/>
<path d="M36.0002 28.0003C36.0002 33.1523 31.9682 37.3337 27.0002 37.3337C22.0322 37.3337 18.0002 33.1523 18.0002 28.0003C18.0002 22.8483 22.0322 18.667 27.0002 18.667C31.9682 18.667 36.0002 22.8483 36.0002 28.0003Z" fill="#1ABCFE"/>
</svg>
