<svg width="36" height="41" viewBox="0 0 36 41" fill="none" xmlns="http://www.w3.org/2000/svg">
    <g id="Alaya 1" clip-path="url(#clip0_310_4548)">
        <g id="Clip path group">
            <mask id="mask0_310_4548" style="mask-type:luminance" maskUnits="userSpaceOnUse" x="0" y="0" width="36" height="41">
                <g id="clip0_103_1645">
                    <path id="Vector" d="M36 0H0V41H36V0Z" fill="white"/>
                </g>
            </mask>
            <g mask="url(#mask0_310_4548)">
                <g id="Group">
                    <path id="Vector_2" fill-rule="evenodd" clip-rule="evenodd" d="M10.677 40.9245C8.70938 40.9245 6.92509 40.534 5.32402 39.7528C3.70367 38.9912 2.41124 37.8879 1.44674 36.4428C0.482248 34.9977 0 33.3183 0 31.4046C0 29.3346 0.569053 27.577 1.70716 26.132C2.84527 24.726 4.33059 23.6714 6.16313 22.9684C8.01495 22.2654 10.0115 21.9139 12.1526 21.9139C14.6797 21.9139 17.1102 22.2947 19.4443 23.0563V21.7381C19.4443 20.1759 18.7884 18.9847 17.4767 18.1645C16.1842 17.3443 14.4289 16.9342 12.2105 16.9342C11.2653 16.9342 10.2043 17.0514 9.02767 17.2857C7.851 17.5201 6.70325 17.8423 5.58443 18.2524C4.46562 18.6624 3.49148 19.1213 2.66201 19.6291L2.22669 19.1902V10.3462C4.22664 9.62664 5.96554 9.3855 7.95143 9.11004C8.28323 9.06403 8.62185 9.01703 8.96985 8.96677C11.4004 8.59572 13.6669 8.41016 15.7695 8.41016C27.4978 8.41016 33.3619 10.1746 33.3619 18.4281V31.5803H36.0818V40.3973H21.2671L19.9651 35.5934C19.1357 37.2337 17.8432 38.5323 16.0878 39.4892C14.3324 40.4461 12.5288 40.9245 10.677 40.9245ZM18.0553 33.1035C17.3995 33.3183 16.7533 33.4257 16.1168 33.4257C15.1715 33.4257 14.4096 33.1328 13.8309 32.5469C13.2715 31.9416 12.9918 31.2386 12.9918 30.4379C12.9918 29.3639 13.2907 28.5046 13.8887 27.8602C14.506 27.2158 15.3259 26.8936 16.3482 26.8936C16.8305 26.8936 17.3995 26.9814 18.0553 27.1572C18.6919 27.3525 19.1549 27.4696 19.4443 27.5087V32.4298C19.1935 32.6642 18.7305 32.8887 18.0553 33.1035Z" fill="black"/>
                    <path id="Vector_3" fill-rule="evenodd" clip-rule="evenodd" d="M32.6537 0H2.07715V8.31138C4.32069 7.59328 6.60185 7.07445 8.92065 6.75493C11.6693 6.35383 14.2315 6.16357 16.6071 6.18414C24.0574 6.24867 29.4062 7.50378 32.6537 9.94949V0Z" fill="#FF5C00"/>
                </g>
            </g>
        </g>
    </g>
    <defs>
        <clipPath id="clip0_310_4548">
        <rect width="36" height="41" fill="white"/>
        </clipPath>
    </defs>
</svg>
