<svg width="24" height="24" viewBox="0 0 24 24" fill="none" xmlns="http://www.w3.org/2000/svg">
<g clip-path="url(#clip0_487_3108)">
<path fill-rule="evenodd" clip-rule="evenodd" d="M0 12C0 5.3625 5.3625 0 12 0C18.6375 0 24 5.3625 24 12C24 18.6375 18.6375 24 12 24H11.025V23.9625C4.875 23.475 0 18.3 0 12ZM12.3 22.05C17.7 21.9 22.05 17.4375 22.05 12C22.05 6.45 17.55 1.95 12 1.95C6.45 1.95 1.95 6.45 1.95 12C1.95 17.55 6.45 22.05 12 22.05H12.3Z" fill="#3C3C4E"/>
<path fill-rule="evenodd" clip-rule="evenodd" d="M7.12502 3.2248C6.97502 3.1873 6.86252 3.1498 6.71252 3.0748L7.35002 1.2373C7.42502 1.2748 7.50002 1.2748 7.65002 1.3123C7.87502 1.3873 8.13752 1.4623 8.28752 1.5373C8.32502 1.5373 8.36252 1.5748 8.43752 1.5748C8.70002 1.6873 9.00002 1.7998 9.26252 1.9123L9.30002 1.9498C9.41252 2.0248 9.60002 2.0998 9.75002 2.1748C9.82502 2.2123 9.90002 2.2498 9.97502 2.2873H10.0125H10.05C10.0875 2.3248 10.2 2.3623 10.3125 2.4373H10.35C10.35 2.4373 10.3875 2.4373 10.3875 2.4748C10.3875 2.4748 10.425 2.4748 10.425 2.5123C10.425 2.5123 10.425 2.5123 10.4625 2.5123C10.4625 2.5123 10.4625 2.5123 10.5 2.5123C10.5 2.5123 10.5375 2.5123 10.5375 2.5498C10.6125 2.5873 10.725 2.6623 10.8 2.6998C10.9125 2.7748 11.0625 2.8498 11.175 2.9248C11.2875 2.9998 11.4375 3.1123 11.55 3.1498L11.5875 3.1873C11.6625 3.2248 11.7375 3.2623 11.775 3.2998C11.85 3.3373 11.925 3.4123 12 3.4498C12.0375 3.4873 12.075 3.4873 12.075 3.5248C12.1125 3.5623 12.15 3.5623 12.1875 3.5998C12.225 3.6373 12.225 3.6373 12.2625 3.6373C12.2625 3.6373 12.2625 3.6373 12.3 3.6373H12.3375H12.375C13.4625 4.4623 14.4 5.3998 15.225 6.4873C16.125 7.6873 16.8375 8.9998 17.325 10.4248C18.7875 14.5498 18.375 19.2748 16.05 23.0248L14.4 22.0123C16.3875 18.7873 16.7625 14.6623 15.4875 11.0623C15.075 9.8623 14.4375 8.6998 13.65 7.6873C12.9375 6.7498 12.1125 5.9248 11.175 5.2123C11.1375 5.1748 11.0625 5.1373 11.025 5.0998C10.9875 5.0623 10.95 5.0248 10.9125 5.0248C10.875 4.9873 10.875 4.9873 10.8375 4.9498C10.7625 4.9123 10.725 4.8373 10.65 4.7998C10.6125 4.7623 10.575 4.7623 10.575 4.7623H10.5375V4.8748C10.5 4.8373 10.425 4.7998 10.3875 4.7998C10.3125 4.7248 10.2375 4.6873 10.1625 4.6498L10.125 4.6123L10.0875 4.5748C10.0875 4.5748 10.05 4.5748 10.0125 4.5373C9.97502 4.4998 9.90002 4.4623 9.82502 4.4248C9.75002 4.3873 9.63752 4.3123 9.60002 4.2748C9.56252 4.2748 9.52502 4.2373 9.52502 4.2373L9.48752 4.1998C9.45002 4.1998 9.45002 4.1623 9.41252 4.1623C9.41252 4.1623 9.37502 4.1248 9.33752 4.1248C9.30002 4.0873 9.26252 4.0873 9.18752 4.0498C9.11252 4.0123 9.03752 3.9748 8.96252 3.9373C8.81252 3.8623 8.66252 3.7873 8.51252 3.7498L8.47502 3.7123C8.28752 3.6373 8.06252 3.5623 7.83752 3.4498C7.72502 3.4123 7.68752 3.3748 7.61252 3.3748C7.46252 3.2998 7.31252 3.2623 7.12502 3.2248Z" fill="#3C3C4E"/>
<path fill-rule="evenodd" clip-rule="evenodd" d="M11.25 7.8373C14.1751 7.3123 16.9126 5.6623 18.7501 3.2998L20.2876 4.4998C18.1125 7.2373 15 9.1498 11.5875 9.7498C9.90005 10.0498 8.13755 10.0498 6.45005 9.7498C4.76255 9.4498 3.11255 8.8498 1.61255 7.9498L2.62505 6.2998C3.90005 7.0498 5.32505 7.6123 6.78755 7.8748C8.25005 8.0998 9.75005 8.0998 11.25 7.8373Z" fill="#3C3C4E"/>
<path fill-rule="evenodd" clip-rule="evenodd" d="M6.03748 21.8621C7.68748 13.3871 16.35 8.69962 23.4 10.6121L22.875 12.4871C16.875 10.8371 9.37498 14.8871 7.91248 22.2371L6.03748 21.8621Z" fill="#3C3C4E"/>
</g>
<defs>
<clipPath id="clip0_487_3108">
<rect width="24" height="24" fill="white"/>
</clipPath>
</defs>
</svg>
