<svg width="18" height="26" viewBox="0 0 18 26" fill="none" xmlns="http://www.w3.org/2000/svg">
<g id="Figma svg">
<g id="Group">
<path id="Rectangle 55" d="M16.4847 5.51822C16.4847 7.58427 14.781 9.25912 12.6795 9.25912H8.77539V1.77734H12.6795C14.781 1.77734 16.4847 3.45219 16.4847 5.51822Z" stroke="#3C3C43" stroke-opacity="0.6" stroke-width="2"/>
<path id="Rectangle 55_2" d="M1.06609 5.51822C1.06609 7.58427 2.76974 9.25912 4.87132 9.25912H8.77539V1.77734H4.87132C2.76974 1.77734 1.06609 3.45219 1.06609 5.51822Z" stroke="#3C3C43" stroke-opacity="0.6" stroke-width="2"/>
<path id="Rectangle 55_3" d="M1.06609 13.0002C1.06609 15.0662 2.76974 16.7411 4.87132 16.7411H8.77539V9.25928H4.87132C2.76974 9.25928 1.06609 10.9341 1.06609 13.0002Z" stroke="#3C3C43" stroke-opacity="0.6" stroke-width="2"/>
<path id="Rectangle 55_4" d="M1.06609 20.4816C1.06609 22.5477 2.79429 24.2225 4.89587 24.2225C7.02473 24.2225 8.77539 22.5259 8.77539 20.433V16.7407H4.87132C2.76974 16.7407 1.06609 18.4156 1.06609 20.4816Z" stroke="#3C3C43" stroke-opacity="0.6" stroke-width="2"/>
<path id="Rectangle 55_5" d="M8.77539 13.0002C8.77539 15.0662 10.479 16.7411 12.5806 16.7411H12.6795C14.781 16.7411 16.4847 15.0662 16.4847 13.0002C16.4847 10.9341 14.781 9.25928 12.6795 9.25928H12.5806C10.479 9.25928 8.77539 10.9341 8.77539 13.0002Z" stroke="#3C3C43" stroke-opacity="0.6" stroke-width="2"/>
</g>
</g>
</svg>
