<svg width="25" height="24" viewBox="0 0 25 24" fill="none" xmlns="http://www.w3.org/2000/svg">
<g id="Instagram svg" clip-path="url(#clip0_330_1327)">
<path id="Vector" d="M7.30546 0.0839251C6.02866 0.144165 5.15674 0.347925 4.3945 0.647445C3.60562 0.954885 2.93698 1.36745 2.2717 2.03513C1.60642 2.70281 1.19674 3.37193 0.891463 4.16201C0.596023 4.92593 0.395863 5.79857 0.339463 7.07609C0.283063 8.35361 0.270583 8.76425 0.276823 12.023C0.283063 15.2817 0.297463 15.6902 0.359383 16.9703C0.420343 18.2469 0.623383 19.1186 0.922903 19.881C1.23082 20.6699 1.6429 21.3383 2.31082 22.0038C2.97874 22.6694 3.64738 23.0781 4.43938 23.3838C5.20258 23.6788 6.07546 23.8799 7.35274 23.9358C8.63002 23.9918 9.04114 24.0047 12.2989 23.9985C15.5567 23.9922 15.9668 23.9778 17.2467 23.9171C18.5267 23.8564 19.3938 23.6519 20.1565 23.3538C20.9454 23.0452 21.6143 22.6338 22.2793 21.9657C22.9443 21.2975 23.3538 20.6279 23.6588 19.8374C23.9545 19.0742 24.1554 18.2013 24.2108 16.925C24.2667 15.6441 24.2799 15.2351 24.2737 11.9769C24.2675 8.71865 24.2528 8.31017 24.1921 7.03049C24.1314 5.75081 23.9281 4.88177 23.6288 4.11881C23.3204 3.32993 22.9088 2.66201 22.2411 1.99601C21.5735 1.33001 20.9034 0.920805 20.1131 0.616485C19.3494 0.321045 18.477 0.119685 17.1997 0.0644851C15.9224 0.00928514 15.5113 -0.00487487 12.2523 0.00136513C8.99338 0.00760513 8.58538 0.0215251 7.30546 0.0839251ZM7.44562 21.777C6.27562 21.7262 5.64034 21.5318 5.21698 21.369C4.65634 21.153 4.25698 20.8919 3.83506 20.4741C3.41314 20.0562 3.15394 19.6554 2.93506 19.096C2.77066 18.6726 2.57266 18.0381 2.51794 16.8681C2.45842 15.6035 2.44594 15.2238 2.43898 12.0201C2.43202 8.81633 2.44426 8.43713 2.4997 7.17209C2.54962 6.00305 2.74522 5.36705 2.9077 4.94393C3.1237 4.38257 3.38386 3.98393 3.80266 3.56225C4.22146 3.14057 4.62106 2.88089 5.18098 2.66201C5.60386 2.49689 6.23842 2.30057 7.40794 2.24489C8.67346 2.18489 9.05266 2.17289 12.2559 2.16593C15.4592 2.15897 15.8394 2.17097 17.1054 2.22664C18.2744 2.27753 18.9107 2.4712 19.3333 2.63464C19.8942 2.85065 20.2933 3.11009 20.715 3.52961C21.1367 3.94913 21.3966 4.34729 21.6155 4.90841C21.7808 5.33009 21.9771 5.96441 22.0323 7.13465C22.0926 8.40017 22.1063 8.7796 22.112 11.9826C22.1178 15.1857 22.1065 15.5661 22.0511 16.8306C21.9999 18.0006 21.806 18.6362 21.6431 19.06C21.4271 19.6204 21.1667 20.02 20.7476 20.4414C20.3286 20.8629 19.9295 21.1226 19.3693 21.3414C18.9469 21.5063 18.3116 21.7031 17.1431 21.7588C15.8775 21.8183 15.4983 21.8308 12.2939 21.8378C9.08938 21.8447 8.71138 21.8318 7.44586 21.777M17.2283 5.58641C17.2287 5.87123 17.3137 6.14952 17.4723 6.38607C17.631 6.62262 17.8562 6.80681 18.1195 6.91535C18.3829 7.02389 18.6725 7.05189 18.9517 6.99583C19.231 6.93976 19.4873 6.80214 19.6884 6.60037C19.8894 6.3986 20.0261 6.14174 20.0811 5.86228C20.1362 5.58283 20.1071 5.29333 19.9976 5.03039C19.8881 4.76746 19.7031 4.5429 19.4659 4.38512C19.2288 4.22735 18.9502 4.14344 18.6654 4.14401C18.2836 4.14477 17.9177 4.29715 17.6482 4.56764C17.3787 4.83813 17.2276 5.20458 17.2283 5.58641ZM6.11386 12.0119C6.12058 15.4151 8.88442 18.1677 12.2869 18.1612C15.6894 18.1547 18.4439 15.3911 18.4374 11.9879C18.4309 8.58473 15.6663 5.83145 12.2634 5.83817C8.86042 5.84489 6.10738 8.60921 6.11386 12.0119ZM8.2753 12.0076C8.27374 11.2165 8.50681 10.4426 8.94504 9.78395C9.38327 9.12527 10.007 8.61134 10.7373 8.30714C11.4676 8.00294 12.2717 7.92213 13.048 8.07494C13.8242 8.22774 14.5377 8.6073 15.0983 9.16561C15.6588 9.72393 16.0412 10.4359 16.197 11.2115C16.3529 11.9872 16.2753 12.7916 15.974 13.5231C15.6727 14.2547 15.1612 14.8804 14.5043 15.3212C13.8473 15.7621 13.0744 15.9982 12.2833 15.9998C11.758 16.0009 11.2376 15.8985 10.7519 15.6984C10.2661 15.4984 9.82455 15.2046 9.45236 14.8339C9.08017 14.4632 8.78465 14.0228 8.58269 13.5378C8.38073 13.0529 8.27628 12.5329 8.2753 12.0076Z" fill="#3C3C43" fill-opacity="0.6"/>
</g>
<defs>
<clipPath id="clip0_330_1327">
<rect width="24" height="24" fill="white" transform="translate(0.275383)"/>
</clipPath>
</defs>
</svg>
