<svg width="30" height="24" viewBox="0 0 30 24" fill="none" xmlns="http://www.w3.org/2000/svg">
<g id="LinkedIn svg" clip-path="url(#clip0_330_1323)">
<path id="Path 2525" d="M27.8803 22.4509C27.9413 22.4515 28.0017 22.4397 28.0579 22.4162C28.1141 22.3927 28.1649 22.358 28.207 22.3143C28.2491 22.2706 28.2816 22.2188 28.3027 22.1621C28.3237 22.1054 28.3327 22.045 28.3292 21.9847C28.3292 21.6541 28.1277 21.4961 27.7144 21.4961H27.0465V23.2272H27.2977V22.4726H27.6064L27.6135 22.4818L28.0925 23.2272H28.3611L27.8457 22.4557L27.8803 22.4509ZM27.5897 22.2775H27.2985V21.6923H27.6677C27.8584 21.6923 28.0758 21.7231 28.0758 21.9704C28.0758 22.2548 27.8558 22.2775 27.5883 22.2775" fill="#3C3C43" fill-opacity="0.6"/>
<path id="Path 2520" d="M21.3276 20.2814H17.7656V14.7581C17.7656 13.441 17.7419 11.7456 15.913 11.7456C14.0578 11.7456 13.774 13.1806 13.774 14.6622V20.2811H10.2119V8.92291H13.6315V10.4751H13.6793C14.0216 9.89577 14.5161 9.41916 15.1102 9.09607C15.7043 8.77297 16.3759 8.61549 17.0532 8.64039C20.6635 8.64039 21.3291 10.9917 21.3291 14.0505L21.3276 20.2814ZM6.19282 7.37033C5.78399 7.3704 5.38431 7.25043 5.04434 7.0256C4.70437 6.80076 4.43939 6.48115 4.28287 6.10719C4.12635 5.73323 4.08533 5.32171 4.16502 4.92467C4.2447 4.52763 4.44152 4.16291 4.73055 3.87662C5.01958 3.59033 5.38787 3.39533 5.78883 3.31629C6.18979 3.23724 6.60541 3.2777 6.98314 3.43254C7.36088 3.58739 7.68376 3.84966 7.91095 4.1862C8.13815 4.52274 8.25946 4.91844 8.25953 5.32324C8.25958 5.59202 8.20615 5.85817 8.10232 6.10651C7.99848 6.35485 7.84628 6.58051 7.65437 6.7706C7.46246 6.96069 7.23459 7.11149 6.98382 7.21439C6.73305 7.31729 6.46427 7.37028 6.19282 7.37033ZM7.97382 20.2814H4.40811V8.92291H7.97382V20.2814ZM23.1035 0.00162171H2.61821C2.15325 -0.00357365 1.70521 0.174219 1.37257 0.49593C1.03994 0.817642 0.849924 1.25695 0.84425 1.71732V22.085C0.84973 22.5456 1.03963 22.9852 1.37226 23.3072C1.70488 23.6293 2.15302 23.8074 2.61821 23.8025H23.1035C23.5696 23.8083 24.019 23.6307 24.3529 23.3086C24.6868 22.9866 24.878 22.5465 24.8845 22.085V1.71586C24.8778 1.25457 24.6865 0.814759 24.3526 0.493056C24.0186 0.171352 23.5693 -0.00593224 23.1035 0.000151565" fill="#3C3C43" fill-opacity="0.6"/>
<path id="Path 2526" d="M27.6202 20.7246C27.1868 20.7287 26.7727 20.9026 26.4685 21.2082C26.1642 21.5139 25.9946 21.9263 25.9967 22.3555C25.9988 22.7846 26.1724 23.1954 26.4796 23.4981C26.7868 23.8008 27.2026 23.9708 27.636 23.9708C28.0693 23.9708 28.4851 23.8008 28.7923 23.4981C29.0995 23.1954 29.2731 22.7846 29.2752 22.3555C29.2773 21.9263 29.1077 21.5139 28.8034 21.2082C28.4992 20.9026 28.0851 20.7287 27.6517 20.7246H27.6202ZM27.6202 23.7849C27.3359 23.7896 27.0567 23.7108 26.8177 23.5583C26.5787 23.4058 26.3908 23.1866 26.2776 22.9284C26.1645 22.6701 26.1312 22.3845 26.182 22.1075C26.2328 21.8305 26.3654 21.5747 26.5631 21.3724C26.7607 21.17 27.0145 21.0303 27.2924 20.9708C27.5703 20.9113 27.8597 20.9347 28.1242 21.0381C28.3886 21.1415 28.6161 21.3202 28.778 21.5516C28.9398 21.783 29.0287 22.0567 29.0335 22.3382C29.0335 22.3463 29.0335 22.354 29.0335 22.3621C29.0414 22.7313 28.901 23.0885 28.643 23.3552C28.385 23.6219 28.0305 23.7762 27.6576 23.7842H27.6206" fill="#3C3C43" fill-opacity="0.6"/>
</g>
<defs>
<clipPath id="clip0_330_1323">
<rect width="28.4308" height="24" fill="white" transform="translate(0.844612)"/>
</clipPath>
</defs>
</svg>
