<svg width="30" height="24" viewBox="0 0 30 24" fill="none" xmlns="http://www.w3.org/2000/svg">
    <g clip-path="url(#clip0_330_1321)">
    <path d="M26.7858 6.03423C26.8034 6.28952 26.8034 6.54481 26.8034 6.80246C26.8034 14.653 20.8385 23.7072 9.93146 23.7072V23.7025C6.70947 23.7072 3.55441 22.7825 0.842026 21.0389C1.31053 21.0954 1.78138 21.1236 2.25341 21.1248C4.92352 21.1272 7.51732 20.2295 9.61795 18.5766C7.08052 18.5283 4.85542 16.8707 4.0781 14.4507C4.96697 14.6225 5.88284 14.5872 6.75526 14.3483C3.98886 13.7883 1.99861 11.353 1.99861 8.52481C1.99861 8.49893 1.99861 8.47423 1.99861 8.44952C2.82289 8.90952 3.74581 9.16481 4.68986 9.19305C2.08432 7.44834 1.28117 3.9754 2.85459 1.26011C5.86523 4.97187 10.3072 7.22834 15.0756 7.46717C14.5977 5.40364 15.2506 3.24128 16.7911 1.7907C19.1794 -0.458716 22.9357 -0.343422 25.1807 2.04834C26.5087 1.78599 27.7816 1.29775 28.9464 0.60599C28.5037 1.98128 27.5772 3.14952 26.3396 3.89187C27.515 3.75305 28.6634 3.43775 29.7448 2.95658C28.9487 4.15187 27.9459 5.19305 26.7858 6.03423Z" fill="#3C3C43" fill-opacity="0.6"/>
    </g>
    <defs>
    <clipPath>
    <rect width="29.12" height="24" fill="white" transform="translate(0.724609)"/>
    </clipPath>
    </defs>
</svg>

